<svg width="512" height="512" viewBox="0 0 200 180" xmlns="http://www.w3.org/2000/svg">
  <g fill="none" stroke="black" stroke-width="2" stroke-linecap="round" stroke-linejoin="round">

    <path d="M 30,120 
             L 170,120 
             A 20,20 0 0 1 190,140 
             L 190,160 
             A 20,20 0 0 1 170,180 
             L 140,180
             Q 135,175 130,180 
             L 60,180 
             Q 55,175 50,180
             L 30,180 
             A 20,20 0 0 1 10,160 
             L 10,140 
             A 20,20 0 0 1 30,120 Z" />

    <path d="M 50,115 
             L 55,60 
             Q 60,40 75,55
             L 70,65 L 78,70 
             L 73,80 L 81,85 
             L 76,95 L 84,100
             L 70,115" />

    <path d="M 85,115 
             L 130,50 
             Q 135,40 145,55 
             Q 150,65 120,115" />

    <path d="M 135,115 
             L 165,85 
             Q 175,80 185,90 
             L 175,95 
             Q 165,95 165,105
             L 155,115" />

    <path d="M 55,135 
             Q 40,135 40,145 
             Q 40,155 55,155 
             Q 70,155 70,165 
             Q 70,175 55,175" />

    <path d="M 85,135 L 85,175 
             M 105,135 L 85,155 L 105,175" />

    <circle cx="170" cy="150" r="6" />
    
  </g>
</svg>
