<svg version="1.0" xmlns="http://www.w3.org/2000/svg" width="800.000000" height="800.000000" viewBox="0 0 800.000000 800.000000" preserveAspectRatio="xMidYMid meet">
  <metadata>
    <rdf:RDF xmlns:rdf="http://www.w3.org/1999/02/22-rdf-syntax-ns#" xmlns:rdfs="http://www.w3.org/2000/01/rdf-schema#" xmlns:dc="http://purl.org/dc/elements/1.1/">
      <rdf:Description dc:format="image/svg+xml" dc:Label="1" dc:ContentProducer="001191330110MACRLGPT8B00000" dc:ProduceID="362993258" dc:ReservedCode1="aITQ//tiJEZUvjW7TWuymWaJWXacUvES3VUnq75j9K0=" dc:ContentPropagator="001191330110MACRLGPT8B00000" dc:PropagateID="362993258" dc:ReservedCode2="aITQ//tiJEZUvjW7TWuymWaJWXacUvES3VUnq75j9K0="/>
    </rdf:RDF>
  </metadata>
  <g transform="translate(115.996520,702.684559) scale(0.071721,-0.071721)" fill="#000000" stroke="none">
    <path d="M2818 7031 c-137 -69 -375 -287 -466 -426 -61 -92 -122 -213 -151 -300 -40 -122 -51 -223 -81 -735 -17 -283 -46 -776 -66 -1095 -19 -319 -32 -595 -29 -613 7 -39 54 -95 94 -111 19 -9 85 -11 208 -9 235 4 214 -11 361 270 62 117 135 256 163 308 148 279 169 324 169 372 0 25 -9 67 -20 92 l-19 46 46 42 c149 138 174 164 193 202 26 54 26 118 0 170 -11 23 -47 75 -81 116 -33 41 -59 81 -57 90 2 9 44 53 95 98 112 100 136 136 136 206 0 64 -5 74 -111 214 l-86 114 88 84 c101 98 132 152 122 220 -6 44 -272 569 -310 612 -48 54 -131 68 -198 33z m116 -489 c42 -78 76 -148 76 -154 0 -7 -40 -53 -90 -103 -159 -163 -160 -212 -6 -407 42 -54 76 -101 76 -106 0 -4 -45 -50 -100 -101 -109 -101 -140 -148 -140 -211 0 -57 17 -92 100 -200 l73 -94 -106 -102 c-150 -142 -172 -198 -123 -317 23 -55 23 -58 7 -90 -9 -17 -88 -166 -175 -329 -140 -263 -161 -298 -182 -298 -28 0 -29 3 -14 215 5 77 19 295 30 485 11 190 25 417 30 505 6 88 19 313 30 500 21 365 32 434 90 561 37 82 105 186 166 253 65 72 165 154 175 144 4 -4 42 -72 83 -151z"/>
    <path d="M4860 6636 c-14 -8 -70 -65 -125 -127 -114 -128 -242 -236 -362 -306 -178 -103 -161 -86 -386 -398 -265 -369 -953 -1332 -1036 -1450 -34 -49 -105 -151 -157 -225 -121 -171 -134 -197 -134 -259 0 -39 6 -56 26 -81 53 -62 32 -60 617 -60 l534 0 43 23 c37 19 72 62 220 267 97 135 333 461 525 725 411 564 482 669 535 781 107 225 135 469 79 686 -43 172 -159 383 -229 420 -41 21 -114 23 -150 4z m86 -448 c25 -81 29 -108 29 -208 -1 -133 -22 -225 -81 -343 -46 -90 -47 -92 -338 -492 -360 -495 -546 -751 -687 -945 l-126 -175 -338 -3 -337 -2 29 37 c16 21 65 90 108 153 68 99 341 481 763 1070 61 85 139 195 174 243 196 275 257 354 286 372 192 118 282 185 375 279 56 57 105 104 108 104 3 1 19 -40 35 -90z"/>
    <path d="M6125 5191 c-152 -38 -216 -82 -543 -373 -709 -632 -930 -833 -956 -873 -46 -68 -26 -159 43 -199 33 -19 55 -20 480 -20 l446 -1 75 28 c41 15 91 38 111 52 65 42 137 123 169 188 26 54 32 80 37 161 9 149 41 176 210 176 238 1 334 55 483 270 133 193 203 316 207 367 8 92 -39 134 -194 177 -228 63 -434 80 -568 47z m326 -286 c40 -9 74 -17 75 -18 7 -7 -160 -226 -187 -244 -27 -20 -45 -23 -118 -23 -197 -1 -310 -33 -397 -113 -79 -72 -113 -147 -127 -283 -6 -60 -17 -119 -25 -132 -8 -13 -36 -35 -61 -50 -46 -27 -47 -27 -271 -30 l-225 -2 60 56 c64 62 724 648 820 730 74 62 124 93 178 110 58 18 191 17 278 -1z"/>
    <path d="M2008 3688 c-245 -18 -468 -128 -652 -318 -178 -185 -284 -407 -316 -664 -16 -125 -7 -330 19 -447 83 -367 347 -678 682 -800 173 -63 152 -62 984 -66 562 -3 770 -1 800 7 24 7 62 33 95 65 104 98 28 90 835 90 807 0 728 9 836 -91 33 -30 71 -59 85 -64 34 -13 231 -13 351 1 230 25 438 126 611 296 165 163 266 356 324 618 8 39 13 124 12 240 -1 167 -3 188 -32 298 -35 135 -116 307 -187 402 -166 220 -398 372 -640 419 -70 14 -297 16 -1900 18 -1001 2 -1859 0 -1907 -4z m3773 -299 c303 -75 530 -333 595 -676 21 -114 15 -304 -15 -418 -72 -275 -276 -500 -526 -582 -65 -21 -106 -27 -215 -30 l-135 -5 -65 52 c-36 29 -90 65 -120 79 l-55 26 -790 0 -790 0 -65 -32 c-36 -18 -88 -53 -117 -78 l-52 -46 -738 3 -738 3 -70 23 c-140 47 -260 126 -353 235 -145 169 -212 355 -212 592 0 257 83 474 243 636 111 112 234 184 374 218 75 19 138 20 1919 20 1836 1 1840 1 1925 -20z"/>
    <path d="M2080 3046 c-152 -34 -246 -133 -258 -271 -9 -115 44 -213 144 -267 27 -14 96 -43 154 -63 111 -39 147 -63 137 -89 -19 -48 -123 -43 -266 12 l-94 36 -16 -23 c-8 -13 -33 -62 -55 -109 l-39 -85 29 -24 c40 -32 165 -79 249 -94 37 -6 102 -9 144 -6 145 10 246 69 298 175 37 75 40 194 6 258 -44 82 -132 140 -296 194 -38 12 -80 32 -95 45 l-27 23 20 22 c18 20 27 22 85 17 44 -3 89 -15 139 -38 l73 -33 18 24 c28 37 81 175 75 192 -10 25 -138 88 -212 103 -81 17 -139 18 -213 1z"/>
    <path d="M2685 3037 c-16 -8 -39 -24 -50 -37 -19 -21 -20 -38 -23 -429 -1 -310 1 -412 10 -430 33 -63 132 -89 198 -53 50 27 70 72 70 162 1 70 3 77 34 112 l33 37 104 -152 c88 -127 110 -152 134 -157 17 -3 92 -4 168 -2 108 3 137 6 134 17 -3 7 -58 88 -123 181 -65 93 -139 200 -166 238 l-48 70 28 30 c58 63 312 394 312 407 0 5 -75 9 -167 8 l-168 0 -21 -27 c-12 -15 -73 -94 -137 -175 l-117 -148 0 133 c0 143 -7 167 -52 201 -33 25 -113 32 -153 14z"/>
    <path d="M5595 2876 c-57 -18 -82 -33 -132 -79 -70 -64 -96 -125 -101 -232 -3 -75 0 -100 18 -147 85 -226 373 -286 545 -113 54 53 80 103 95 181 48 244 -191 464 -425 390z m133 -284 c28 -35 3 -112 -36 -112 -50 0 -73 94 -31 124 23 16 47 12 67 -12z"/>
  </g>
</svg>
